<mxfile host="app.diagrams.net" modified="2024-07-09T01:15:51.597Z" agent="Mozilla/5.0 (Windows NT 10.0; Win64; x64) AppleWebKit/537.36 (KHTML, like Gecko) Chrome/125.0.0.0 Safari/537.36" etag="JsedcIBlgkS634hqi9Lq" version="24.6.4" type="github">
  <diagram name="第 1 页" id="xPfh4IP5ZBfr27BcKs77">
    <mxGraphModel dx="1438" dy="1586" grid="1" gridSize="10" guides="1" tooltips="1" connect="1" arrows="1" fold="1" page="1" pageScale="1" pageWidth="827" pageHeight="1169" math="0" shadow="0">
      <root>
        <mxCell id="0" />
        <mxCell id="1" parent="0" />
        <mxCell id="Pok2jLCqyrNNW6y7tCXJ-65" value="" style="rounded=1;whiteSpace=wrap;html=1;fillColor=none;" vertex="1" parent="1">
          <mxGeometry x="125" y="1552" width="360" height="100" as="geometry" />
        </mxCell>
        <mxCell id="Pok2jLCqyrNNW6y7tCXJ-28" value="" style="ellipse;whiteSpace=wrap;html=1;fillColor=none;" vertex="1" parent="1">
          <mxGeometry x="204" y="1160" width="210" height="150" as="geometry" />
        </mxCell>
        <mxCell id="Pok2jLCqyrNNW6y7tCXJ-1" value="&lt;font face=&quot;Comic Sans MS&quot;&gt;计算节点调用 ProxyEngine::getSegment 获取表数据（可能是表的部分列）&lt;/font&gt;" style="rounded=1;whiteSpace=wrap;html=1;" vertex="1" parent="1">
          <mxGeometry x="90" y="260" width="220" height="60" as="geometry" />
        </mxCell>
        <mxCell id="Pok2jLCqyrNNW6y7tCXJ-2" value="" style="endArrow=classic;html=1;rounded=0;" edge="1" parent="1">
          <mxGeometry width="50" height="50" relative="1" as="geometry">
            <mxPoint x="199.5" y="320" as="sourcePoint" />
            <mxPoint x="200" y="370" as="targetPoint" />
          </mxGeometry>
        </mxCell>
        <mxCell id="Pok2jLCqyrNNW6y7tCXJ-3" value="&lt;font face=&quot;Comic Sans MS&quot;&gt;ProxyEngine 调用 getRemoteSegment 从数据节点拉取数据&lt;/font&gt;" style="rounded=1;whiteSpace=wrap;html=1;" vertex="1" parent="1">
          <mxGeometry x="90" y="590" width="220" height="60" as="geometry" />
        </mxCell>
        <mxCell id="Pok2jLCqyrNNW6y7tCXJ-4" value="&lt;span style=&quot;font-family: &amp;quot;Comic Sans MS&amp;quot;;&quot;&gt;ProxyEngine 检查是&lt;/span&gt;&lt;div&gt;&lt;span style=&quot;font-family: &amp;quot;Comic Sans MS&amp;quot;;&quot;&gt;否&lt;/span&gt;&lt;span style=&quot;font-family: &amp;quot;Comic Sans MS&amp;quot;; background-color: initial;&quot;&gt;缓存了需要的数据&lt;/span&gt;&lt;/div&gt;" style="rhombus;whiteSpace=wrap;html=1;" vertex="1" parent="1">
          <mxGeometry x="100" y="370" width="200" height="70" as="geometry" />
        </mxCell>
        <mxCell id="Pok2jLCqyrNNW6y7tCXJ-5" value="" style="endArrow=classic;html=1;rounded=0;entryX=0.5;entryY=0;entryDx=0;entryDy=0;" edge="1" parent="1" target="Pok2jLCqyrNNW6y7tCXJ-3">
          <mxGeometry width="50" height="50" relative="1" as="geometry">
            <mxPoint x="199.5" y="440" as="sourcePoint" />
            <mxPoint x="200" y="580" as="targetPoint" />
          </mxGeometry>
        </mxCell>
        <mxCell id="Pok2jLCqyrNNW6y7tCXJ-6" value="&lt;font face=&quot;Comic Sans MS&quot;&gt;N&lt;/font&gt;" style="text;html=1;align=center;verticalAlign=middle;whiteSpace=wrap;rounded=0;" vertex="1" parent="1">
          <mxGeometry x="190" y="440" width="60" height="30" as="geometry" />
        </mxCell>
        <mxCell id="Pok2jLCqyrNNW6y7tCXJ-8" value="" style="endArrow=classic;html=1;rounded=0;entryX=0.5;entryY=0;entryDx=0;entryDy=0;" edge="1" parent="1">
          <mxGeometry width="50" height="50" relative="1" as="geometry">
            <mxPoint x="301" y="405" as="sourcePoint" />
            <mxPoint x="430" y="490" as="targetPoint" />
            <Array as="points">
              <mxPoint x="430" y="405" />
            </Array>
          </mxGeometry>
        </mxCell>
        <mxCell id="Pok2jLCqyrNNW6y7tCXJ-9" value="&lt;font face=&quot;Comic Sans MS&quot;&gt;Y&lt;/font&gt;" style="text;html=1;align=center;verticalAlign=middle;whiteSpace=wrap;rounded=0;" vertex="1" parent="1">
          <mxGeometry x="290" y="380" width="60" height="30" as="geometry" />
        </mxCell>
        <mxCell id="Pok2jLCqyrNNW6y7tCXJ-15" value="&lt;span style=&quot;font-family: &amp;quot;Comic Sans MS&amp;quot;;&quot;&gt;比对QueryCid和缓存数据&lt;/span&gt;&lt;div&gt;&lt;span style=&quot;font-family: &amp;quot;Comic Sans MS&amp;quot;;&quot;&gt;的Cid是否一致，验证缓存数据&lt;/span&gt;&lt;/div&gt;&lt;div&gt;&lt;span style=&quot;font-family: &amp;quot;Comic Sans MS&amp;quot;; background-color: initial;&quot;&gt;有效性&lt;/span&gt;&lt;/div&gt;" style="rhombus;whiteSpace=wrap;html=1;" vertex="1" parent="1">
          <mxGeometry x="330" y="490" width="200" height="70" as="geometry" />
        </mxCell>
        <mxCell id="Pok2jLCqyrNNW6y7tCXJ-16" value="" style="endArrow=classic;html=1;rounded=0;" edge="1" parent="1">
          <mxGeometry width="50" height="50" relative="1" as="geometry">
            <mxPoint x="430" y="560" as="sourcePoint" />
            <mxPoint x="430" y="590" as="targetPoint" />
          </mxGeometry>
        </mxCell>
        <mxCell id="Pok2jLCqyrNNW6y7tCXJ-17" value="&lt;font face=&quot;Comic Sans MS&quot;&gt;N&lt;/font&gt;" style="text;html=1;align=center;verticalAlign=middle;whiteSpace=wrap;rounded=0;" vertex="1" parent="1">
          <mxGeometry x="414" y="555" width="60" height="30" as="geometry" />
        </mxCell>
        <mxCell id="Pok2jLCqyrNNW6y7tCXJ-18" value="" style="endArrow=classic;html=1;rounded=0;entryX=1;entryY=0.5;entryDx=0;entryDy=0;" edge="1" parent="1" target="Pok2jLCqyrNNW6y7tCXJ-24">
          <mxGeometry width="50" height="50" relative="1" as="geometry">
            <mxPoint x="530" y="525" as="sourcePoint" />
            <mxPoint x="440" y="770" as="targetPoint" />
            <Array as="points">
              <mxPoint x="560" y="525" />
              <mxPoint x="560" y="760" />
            </Array>
          </mxGeometry>
        </mxCell>
        <mxCell id="Pok2jLCqyrNNW6y7tCXJ-19" value="&lt;font face=&quot;Comic Sans MS&quot;&gt;Y&lt;/font&gt;" style="text;html=1;align=center;verticalAlign=middle;whiteSpace=wrap;rounded=0;" vertex="1" parent="1">
          <mxGeometry x="510" y="500" width="60" height="30" as="geometry" />
        </mxCell>
        <mxCell id="Pok2jLCqyrNNW6y7tCXJ-21" value="&lt;font face=&quot;Comic Sans MS&quot;&gt;将缓存的数据标记为invalid（剔除？）&lt;/font&gt;" style="rounded=1;whiteSpace=wrap;html=1;" vertex="1" parent="1">
          <mxGeometry x="370" y="590" width="120" height="60" as="geometry" />
        </mxCell>
        <mxCell id="Pok2jLCqyrNNW6y7tCXJ-22" value="" style="endArrow=classic;html=1;rounded=0;exitX=0;exitY=0.5;exitDx=0;exitDy=0;entryX=1;entryY=0.5;entryDx=0;entryDy=0;" edge="1" parent="1" source="Pok2jLCqyrNNW6y7tCXJ-21" target="Pok2jLCqyrNNW6y7tCXJ-3">
          <mxGeometry width="50" height="50" relative="1" as="geometry">
            <mxPoint x="319" y="540" as="sourcePoint" />
            <mxPoint x="319.5" y="620" as="targetPoint" />
          </mxGeometry>
        </mxCell>
        <mxCell id="Pok2jLCqyrNNW6y7tCXJ-23" value="" style="endArrow=classic;html=1;rounded=0;" edge="1" parent="1">
          <mxGeometry width="50" height="50" relative="1" as="geometry">
            <mxPoint x="199.5" y="650" as="sourcePoint" />
            <mxPoint x="200" y="730" as="targetPoint" />
          </mxGeometry>
        </mxCell>
        <mxCell id="Pok2jLCqyrNNW6y7tCXJ-24" value="&lt;font face=&quot;Comic Sans MS&quot;&gt;返回数据&lt;/font&gt;" style="rounded=1;whiteSpace=wrap;html=1;" vertex="1" parent="1">
          <mxGeometry x="145" y="730" width="110" height="60" as="geometry" />
        </mxCell>
        <mxCell id="Pok2jLCqyrNNW6y7tCXJ-25" value="&lt;font face=&quot;Comic Sans MS&quot;&gt;Controller&lt;/font&gt;" style="rounded=1;whiteSpace=wrap;html=1;fillColor=#dae8fc;strokeColor=#6c8ebf;" vertex="1" parent="1">
          <mxGeometry x="240" y="1010" width="110" height="50" as="geometry" />
        </mxCell>
        <mxCell id="Pok2jLCqyrNNW6y7tCXJ-26" value="&lt;font face=&quot;Comic Sans MS&quot;&gt;Query&lt;/font&gt;" style="text;html=1;align=center;verticalAlign=middle;whiteSpace=wrap;rounded=0;" vertex="1" parent="1">
          <mxGeometry x="110" y="1000" width="80" height="30" as="geometry" />
        </mxCell>
        <mxCell id="Pok2jLCqyrNNW6y7tCXJ-27" value="" style="endArrow=classic;html=1;rounded=0;entryX=0;entryY=0.5;entryDx=0;entryDy=0;exitX=1;exitY=0.5;exitDx=0;exitDy=0;" edge="1" parent="1" source="Pok2jLCqyrNNW6y7tCXJ-26" target="Pok2jLCqyrNNW6y7tCXJ-25">
          <mxGeometry width="50" height="50" relative="1" as="geometry">
            <mxPoint x="180" y="1035" as="sourcePoint" />
            <mxPoint x="180" y="980" as="targetPoint" />
          </mxGeometry>
        </mxCell>
        <mxCell id="Pok2jLCqyrNNW6y7tCXJ-29" value="" style="endArrow=classic;html=1;rounded=0;" edge="1" parent="1">
          <mxGeometry width="50" height="50" relative="1" as="geometry">
            <mxPoint x="310" y="1070" as="sourcePoint" />
            <mxPoint x="310" y="1150" as="targetPoint" />
          </mxGeometry>
        </mxCell>
        <mxCell id="Pok2jLCqyrNNW6y7tCXJ-30" value="" style="endArrow=classic;html=1;rounded=0;" edge="1" parent="1">
          <mxGeometry width="50" height="50" relative="1" as="geometry">
            <mxPoint x="290" y="1150" as="sourcePoint" />
            <mxPoint x="290" y="1070" as="targetPoint" />
          </mxGeometry>
        </mxCell>
        <mxCell id="Pok2jLCqyrNNW6y7tCXJ-31" value="&lt;font style=&quot;font-size: 16px;&quot; face=&quot;Comic Sans MS&quot;&gt;……&lt;/font&gt;" style="text;html=1;align=center;verticalAlign=middle;whiteSpace=wrap;rounded=0;" vertex="1" parent="1">
          <mxGeometry x="120" y="1220" width="80" height="30" as="geometry" />
        </mxCell>
        <mxCell id="Pok2jLCqyrNNW6y7tCXJ-32" value="&lt;font style=&quot;font-size: 16px;&quot; face=&quot;Comic Sans MS&quot;&gt;……&lt;/font&gt;" style="text;html=1;align=center;verticalAlign=middle;whiteSpace=wrap;rounded=0;" vertex="1" parent="1">
          <mxGeometry x="410" y="1220" width="80" height="30" as="geometry" />
        </mxCell>
        <mxCell id="Pok2jLCqyrNNW6y7tCXJ-33" value="&lt;font face=&quot;Comic Sans MS&quot;&gt;Compute Group&lt;/font&gt;" style="text;html=1;align=center;verticalAlign=middle;whiteSpace=wrap;rounded=0;" vertex="1" parent="1">
          <mxGeometry x="247" y="1170" width="116" height="20" as="geometry" />
        </mxCell>
        <mxCell id="Pok2jLCqyrNNW6y7tCXJ-35" value="&lt;font face=&quot;Comic Sans MS&quot;&gt;Compute Node&lt;/font&gt;" style="rounded=1;whiteSpace=wrap;html=1;fillColor=#d5e8d4;strokeColor=#82b366;" vertex="1" parent="1">
          <mxGeometry x="230" y="1200" width="70" height="40" as="geometry" />
        </mxCell>
        <mxCell id="Pok2jLCqyrNNW6y7tCXJ-36" value="&lt;font face=&quot;Comic Sans MS&quot;&gt;Route&lt;/font&gt;" style="text;html=1;align=center;verticalAlign=middle;whiteSpace=wrap;rounded=0;" vertex="1" parent="1">
          <mxGeometry x="300" y="1090" width="80" height="30" as="geometry" />
        </mxCell>
        <mxCell id="Pok2jLCqyrNNW6y7tCXJ-37" value="&lt;font face=&quot;Comic Sans MS&quot;&gt;Report&amp;nbsp; Cached Data&amp;nbsp;&lt;/font&gt;" style="text;html=1;align=center;verticalAlign=middle;whiteSpace=wrap;rounded=0;" vertex="1" parent="1">
          <mxGeometry x="210" y="1090" width="80" height="30" as="geometry" />
        </mxCell>
        <mxCell id="Pok2jLCqyrNNW6y7tCXJ-38" value="&lt;font face=&quot;Comic Sans MS&quot;&gt;Compute Node&lt;/font&gt;" style="rounded=1;whiteSpace=wrap;html=1;fillColor=#d5e8d4;strokeColor=#82b366;" vertex="1" parent="1">
          <mxGeometry x="276" y="1250" width="70" height="40" as="geometry" />
        </mxCell>
        <mxCell id="Pok2jLCqyrNNW6y7tCXJ-39" value="&lt;font face=&quot;Comic Sans MS&quot;&gt;Data Node&lt;/font&gt;" style="shape=datastore;whiteSpace=wrap;html=1;fillColor=#f8cecc;strokeColor=#b85450;" vertex="1" parent="1">
          <mxGeometry x="146" y="1570" width="80" height="60" as="geometry" />
        </mxCell>
        <mxCell id="Pok2jLCqyrNNW6y7tCXJ-40" value="&lt;font face=&quot;Comic Sans MS&quot;&gt;Data Node&lt;/font&gt;" style="shape=datastore;whiteSpace=wrap;html=1;fillColor=#f8cecc;strokeColor=#b85450;" vertex="1" parent="1">
          <mxGeometry x="242" y="1570" width="80" height="60" as="geometry" />
        </mxCell>
        <mxCell id="Pok2jLCqyrNNW6y7tCXJ-41" value="&lt;font face=&quot;Comic Sans MS&quot;&gt;Data Node&lt;/font&gt;" style="shape=datastore;whiteSpace=wrap;html=1;fillColor=#f8cecc;strokeColor=#b85450;" vertex="1" parent="1">
          <mxGeometry x="386" y="1570" width="80" height="60" as="geometry" />
        </mxCell>
        <mxCell id="Pok2jLCqyrNNW6y7tCXJ-43" value="&lt;font style=&quot;font-size: 16px;&quot; face=&quot;Comic Sans MS&quot;&gt;…&lt;/font&gt;" style="text;html=1;align=center;verticalAlign=middle;whiteSpace=wrap;rounded=0;" vertex="1" parent="1">
          <mxGeometry x="312" y="1585" width="80" height="30" as="geometry" />
        </mxCell>
        <mxCell id="Pok2jLCqyrNNW6y7tCXJ-45" value="&lt;font face=&quot;Comic Sans MS&quot;&gt;Compute Node&lt;/font&gt;" style="rounded=1;whiteSpace=wrap;html=1;fillColor=#d5e8d4;strokeColor=#82b366;" vertex="1" parent="1">
          <mxGeometry x="320" y="1200" width="70" height="40" as="geometry" />
        </mxCell>
        <mxCell id="Pok2jLCqyrNNW6y7tCXJ-48" value="" style="rounded=1;whiteSpace=wrap;html=1;" vertex="1" parent="1">
          <mxGeometry x="201" y="1348" width="190" height="140" as="geometry" />
        </mxCell>
        <mxCell id="Pok2jLCqyrNNW6y7tCXJ-49" value="&lt;font face=&quot;Comic Sans MS&quot;&gt;SQL Engine&lt;/font&gt;" style="rounded=1;whiteSpace=wrap;html=1;fillColor=#e1d5e7;strokeColor=#9673a6;" vertex="1" parent="1">
          <mxGeometry x="256" y="1360" width="74" height="30" as="geometry" />
        </mxCell>
        <mxCell id="Pok2jLCqyrNNW6y7tCXJ-52" value="&lt;font face=&quot;Comic Sans MS&quot;&gt;Proxy Storage Engine&lt;/font&gt;" style="shape=datastore;whiteSpace=wrap;html=1;fillColor=#fff2cc;strokeColor=#d6b656;" vertex="1" parent="1">
          <mxGeometry x="247.5" y="1420" width="97" height="50" as="geometry" />
        </mxCell>
        <mxCell id="Pok2jLCqyrNNW6y7tCXJ-53" value="" style="endArrow=classic;html=1;rounded=0;" edge="1" parent="1">
          <mxGeometry width="50" height="50" relative="1" as="geometry">
            <mxPoint x="289" y="1390" as="sourcePoint" />
            <mxPoint x="289" y="1420" as="targetPoint" />
          </mxGeometry>
        </mxCell>
        <mxCell id="Pok2jLCqyrNNW6y7tCXJ-54" value="" style="endArrow=classic;html=1;rounded=0;" edge="1" parent="1">
          <mxGeometry width="50" height="50" relative="1" as="geometry">
            <mxPoint x="300" y="1420" as="sourcePoint" />
            <mxPoint x="300" y="1390" as="targetPoint" />
          </mxGeometry>
        </mxCell>
        <mxCell id="Pok2jLCqyrNNW6y7tCXJ-61" value="" style="shape=flexArrow;endArrow=classic;html=1;rounded=0;width=6;endSize=5.33;endWidth=6;" edge="1" parent="1">
          <mxGeometry width="50" height="50" relative="1" as="geometry">
            <mxPoint x="312" y="1293" as="sourcePoint" />
            <mxPoint x="291" y="1343" as="targetPoint" />
          </mxGeometry>
        </mxCell>
        <mxCell id="Pok2jLCqyrNNW6y7tCXJ-77" value="" style="endArrow=classic;html=1;rounded=0;" edge="1" parent="1">
          <mxGeometry width="50" height="50" relative="1" as="geometry">
            <mxPoint x="296" y="1550" as="sourcePoint" />
            <mxPoint x="295.5" y="1473" as="targetPoint" />
          </mxGeometry>
        </mxCell>
        <mxCell id="Pok2jLCqyrNNW6y7tCXJ-78" value="" style="endArrow=classic;html=1;rounded=0;" edge="1" parent="1">
          <mxGeometry width="50" height="50" relative="1" as="geometry">
            <mxPoint x="287" y="1476" as="sourcePoint" />
            <mxPoint x="287" y="1550" as="targetPoint" />
          </mxGeometry>
        </mxCell>
        <mxCell id="Pok2jLCqyrNNW6y7tCXJ-63" value="&lt;font face=&quot;Comic Sans MS&quot;&gt;for Compute Nodes, Data Nodes are hidden by Proxy Storage Engine.&amp;nbsp;&lt;/font&gt;" style="text;html=1;align=center;verticalAlign=middle;whiteSpace=wrap;rounded=0;fillColor=default;" vertex="1" parent="1">
          <mxGeometry x="103" y="1502" width="416" height="30" as="geometry" />
        </mxCell>
        <mxCell id="Pok2jLCqyrNNW6y7tCXJ-80" value="" style="endArrow=classic;html=1;rounded=0;" edge="1" parent="1">
          <mxGeometry width="50" height="50" relative="1" as="geometry">
            <mxPoint x="10" y="2110" as="sourcePoint" />
            <mxPoint x="430" y="2110" as="targetPoint" />
          </mxGeometry>
        </mxCell>
        <mxCell id="Pok2jLCqyrNNW6y7tCXJ-81" value="&lt;font style=&quot;font-size: 14px;&quot; face=&quot;Comic Sans MS&quot;&gt;timeline&lt;/font&gt;" style="text;html=1;align=center;verticalAlign=middle;whiteSpace=wrap;rounded=0;" vertex="1" parent="1">
          <mxGeometry x="-65" y="2095" width="80" height="30" as="geometry" />
        </mxCell>
        <mxCell id="Pok2jLCqyrNNW6y7tCXJ-85" value="" style="ellipse;shape=doubleEllipse;whiteSpace=wrap;html=1;aspect=fixed;" vertex="1" parent="1">
          <mxGeometry x="75" y="2105" width="10" height="10" as="geometry" />
        </mxCell>
        <mxCell id="Pok2jLCqyrNNW6y7tCXJ-88" value="&lt;font face=&quot;Comic Sans MS&quot;&gt;&lt;span style=&quot;font-size: 14px;&quot;&gt;CN fetch data of&lt;/span&gt;&lt;/font&gt;&lt;div&gt;&lt;font face=&quot;Comic Sans MS&quot;&gt;&lt;span style=&quot;font-size: 14px;&quot;&gt;col0(queryCid:1)&lt;/span&gt;&lt;/font&gt;&lt;/div&gt;" style="text;html=1;align=center;verticalAlign=middle;whiteSpace=wrap;rounded=0;" vertex="1" parent="1">
          <mxGeometry x="15" y="2065" width="130" height="30" as="geometry" />
        </mxCell>
        <mxCell id="Pok2jLCqyrNNW6y7tCXJ-89" value="" style="rounded=1;whiteSpace=wrap;html=1;" vertex="1" parent="1">
          <mxGeometry x="30" y="2130" width="100" height="130" as="geometry" />
        </mxCell>
        <mxCell id="Pok2jLCqyrNNW6y7tCXJ-107" value="&lt;font style=&quot;font-size: 14px;&quot; face=&quot;Comic Sans MS&quot;&gt;col0&lt;/font&gt;" style="text;html=1;align=center;verticalAlign=middle;whiteSpace=wrap;rounded=0;" vertex="1" parent="1">
          <mxGeometry x="20" y="2130" width="80" height="30" as="geometry" />
        </mxCell>
        <mxCell id="Pok2jLCqyrNNW6y7tCXJ-130" value="&lt;font style=&quot;font-size: 14px;&quot; face=&quot;Comic Sans MS&quot;&gt;col1&lt;/font&gt;" style="text;html=1;align=center;verticalAlign=middle;whiteSpace=wrap;rounded=0;" vertex="1" parent="1">
          <mxGeometry x="60" y="2130" width="80" height="30" as="geometry" />
        </mxCell>
        <mxCell id="Pok2jLCqyrNNW6y7tCXJ-132" value="" style="shape=table;startSize=0;container=1;collapsible=0;childLayout=tableLayout;fontSize=16;fillColor=#d5e8d4;strokeColor=#82b366;" vertex="1" parent="1">
          <mxGeometry x="45" y="2160" width="30" height="80" as="geometry" />
        </mxCell>
        <mxCell id="Pok2jLCqyrNNW6y7tCXJ-133" value="" style="shape=tableRow;horizontal=0;startSize=0;swimlaneHead=0;swimlaneBody=0;strokeColor=inherit;top=0;left=0;bottom=0;right=0;collapsible=0;dropTarget=0;fillColor=none;points=[[0,0.5],[1,0.5]];portConstraint=eastwest;fontSize=16;" vertex="1" parent="Pok2jLCqyrNNW6y7tCXJ-132">
          <mxGeometry width="30" height="26" as="geometry" />
        </mxCell>
        <mxCell id="Pok2jLCqyrNNW6y7tCXJ-134" value="1" style="shape=partialRectangle;html=1;whiteSpace=wrap;connectable=0;strokeColor=inherit;overflow=hidden;fillColor=none;top=0;left=0;bottom=0;right=0;pointerEvents=1;fontSize=16;" vertex="1" parent="Pok2jLCqyrNNW6y7tCXJ-133">
          <mxGeometry width="30" height="26" as="geometry">
            <mxRectangle width="30" height="26" as="alternateBounds" />
          </mxGeometry>
        </mxCell>
        <mxCell id="Pok2jLCqyrNNW6y7tCXJ-137" value="" style="shape=tableRow;horizontal=0;startSize=0;swimlaneHead=0;swimlaneBody=0;strokeColor=inherit;top=0;left=0;bottom=0;right=0;collapsible=0;dropTarget=0;fillColor=none;points=[[0,0.5],[1,0.5]];portConstraint=eastwest;fontSize=16;" vertex="1" parent="Pok2jLCqyrNNW6y7tCXJ-132">
          <mxGeometry y="26" width="30" height="28" as="geometry" />
        </mxCell>
        <mxCell id="Pok2jLCqyrNNW6y7tCXJ-138" value="3" style="shape=partialRectangle;html=1;whiteSpace=wrap;connectable=0;strokeColor=inherit;overflow=hidden;fillColor=none;top=0;left=0;bottom=0;right=0;pointerEvents=1;fontSize=16;" vertex="1" parent="Pok2jLCqyrNNW6y7tCXJ-137">
          <mxGeometry width="30" height="28" as="geometry">
            <mxRectangle width="30" height="28" as="alternateBounds" />
          </mxGeometry>
        </mxCell>
        <mxCell id="Pok2jLCqyrNNW6y7tCXJ-141" value="" style="shape=tableRow;horizontal=0;startSize=0;swimlaneHead=0;swimlaneBody=0;strokeColor=inherit;top=0;left=0;bottom=0;right=0;collapsible=0;dropTarget=0;fillColor=none;points=[[0,0.5],[1,0.5]];portConstraint=eastwest;fontSize=16;" vertex="1" parent="Pok2jLCqyrNNW6y7tCXJ-132">
          <mxGeometry y="54" width="30" height="26" as="geometry" />
        </mxCell>
        <mxCell id="Pok2jLCqyrNNW6y7tCXJ-142" value="2" style="shape=partialRectangle;html=1;whiteSpace=wrap;connectable=0;strokeColor=inherit;overflow=hidden;fillColor=none;top=0;left=0;bottom=0;right=0;pointerEvents=1;fontSize=16;" vertex="1" parent="Pok2jLCqyrNNW6y7tCXJ-141">
          <mxGeometry width="30" height="26" as="geometry">
            <mxRectangle width="30" height="26" as="alternateBounds" />
          </mxGeometry>
        </mxCell>
        <mxCell id="Pok2jLCqyrNNW6y7tCXJ-145" value="" style="shape=table;startSize=0;container=1;collapsible=0;childLayout=tableLayout;fontSize=16;" vertex="1" parent="1">
          <mxGeometry x="85" y="2160" width="30" height="80" as="geometry" />
        </mxCell>
        <mxCell id="Pok2jLCqyrNNW6y7tCXJ-146" value="" style="shape=tableRow;horizontal=0;startSize=0;swimlaneHead=0;swimlaneBody=0;strokeColor=inherit;top=0;left=0;bottom=0;right=0;collapsible=0;dropTarget=0;fillColor=none;points=[[0,0.5],[1,0.5]];portConstraint=eastwest;fontSize=16;" vertex="1" parent="Pok2jLCqyrNNW6y7tCXJ-145">
          <mxGeometry width="30" height="26" as="geometry" />
        </mxCell>
        <mxCell id="Pok2jLCqyrNNW6y7tCXJ-147" value="a" style="shape=partialRectangle;html=1;whiteSpace=wrap;connectable=0;strokeColor=inherit;overflow=hidden;fillColor=none;top=0;left=0;bottom=0;right=0;pointerEvents=1;fontSize=16;" vertex="1" parent="Pok2jLCqyrNNW6y7tCXJ-146">
          <mxGeometry width="30" height="26" as="geometry">
            <mxRectangle width="30" height="26" as="alternateBounds" />
          </mxGeometry>
        </mxCell>
        <mxCell id="Pok2jLCqyrNNW6y7tCXJ-148" value="" style="shape=tableRow;horizontal=0;startSize=0;swimlaneHead=0;swimlaneBody=0;strokeColor=inherit;top=0;left=0;bottom=0;right=0;collapsible=0;dropTarget=0;fillColor=none;points=[[0,0.5],[1,0.5]];portConstraint=eastwest;fontSize=16;" vertex="1" parent="Pok2jLCqyrNNW6y7tCXJ-145">
          <mxGeometry y="26" width="30" height="28" as="geometry" />
        </mxCell>
        <mxCell id="Pok2jLCqyrNNW6y7tCXJ-149" value="c" style="shape=partialRectangle;html=1;whiteSpace=wrap;connectable=0;strokeColor=inherit;overflow=hidden;fillColor=none;top=0;left=0;bottom=0;right=0;pointerEvents=1;fontSize=16;" vertex="1" parent="Pok2jLCqyrNNW6y7tCXJ-148">
          <mxGeometry width="30" height="28" as="geometry">
            <mxRectangle width="30" height="28" as="alternateBounds" />
          </mxGeometry>
        </mxCell>
        <mxCell id="Pok2jLCqyrNNW6y7tCXJ-150" value="" style="shape=tableRow;horizontal=0;startSize=0;swimlaneHead=0;swimlaneBody=0;strokeColor=inherit;top=0;left=0;bottom=0;right=0;collapsible=0;dropTarget=0;fillColor=none;points=[[0,0.5],[1,0.5]];portConstraint=eastwest;fontSize=16;" vertex="1" parent="Pok2jLCqyrNNW6y7tCXJ-145">
          <mxGeometry y="54" width="30" height="26" as="geometry" />
        </mxCell>
        <mxCell id="Pok2jLCqyrNNW6y7tCXJ-151" value="b" style="shape=partialRectangle;html=1;whiteSpace=wrap;connectable=0;strokeColor=inherit;overflow=hidden;fillColor=none;top=0;left=0;bottom=0;right=0;pointerEvents=1;fontSize=16;" vertex="1" parent="Pok2jLCqyrNNW6y7tCXJ-150">
          <mxGeometry width="30" height="26" as="geometry">
            <mxRectangle width="30" height="26" as="alternateBounds" />
          </mxGeometry>
        </mxCell>
        <mxCell id="Pok2jLCqyrNNW6y7tCXJ-152" value="" style="ellipse;shape=doubleEllipse;whiteSpace=wrap;html=1;aspect=fixed;fillColor=#f8cecc;strokeColor=#b85450;" vertex="1" parent="1">
          <mxGeometry x="215" y="2105" width="10" height="10" as="geometry" />
        </mxCell>
        <mxCell id="Pok2jLCqyrNNW6y7tCXJ-153" value="&lt;font face=&quot;Comic Sans MS&quot;&gt;&lt;span style=&quot;font-size: 14px;&quot;&gt;Compaction&lt;/span&gt;&lt;/font&gt;&lt;div&gt;&lt;font face=&quot;Comic Sans MS&quot;&gt;&lt;span style=&quot;font-size: 14px;&quot;&gt;(queryCid:1)&lt;/span&gt;&lt;/font&gt;&lt;/div&gt;" style="text;html=1;align=center;verticalAlign=middle;whiteSpace=wrap;rounded=0;" vertex="1" parent="1">
          <mxGeometry x="155" y="2065" width="130" height="30" as="geometry" />
        </mxCell>
        <mxCell id="Pok2jLCqyrNNW6y7tCXJ-156" value="&lt;span style=&quot;color: rgba(0, 0, 0, 0); font-family: monospace; font-size: 0px; text-align: start; text-wrap: nowrap;&quot;&gt;%3CmxGraphModel%3E%3Croot%3E%3CmxCell%20id%3D%220%22%2F%3E%3CmxCell%20id%3D%221%22%20parent%3D%220%22%2F%3E%3CmxCell%20id%3D%222%22%20value%3D%22%26lt%3Bfont%20face%3D%26quot%3BComic%20Sans%20MS%26quot%3B%26gt%3B%26lt%3Bspan%20style%3D%26quot%3Bfont-size%3A%2014px%3B%26quot%3B%26gt%3BCompaction%26lt%3B%2Fspan%26gt%3B%26lt%3B%2Ffont%26gt%3B%26lt%3Bdiv%26gt%3B%26lt%3Bfont%20face%3D%26quot%3BComic%20Sans%20MS%26quot%3B%26gt%3B%26lt%3Bspan%20style%3D%26quot%3Bfont-size%3A%2014px%3B%26quot%3B%26gt%3B(queryCid%3A1)%26lt%3B%2Fspan%26gt%3B%26lt%3B%2Ffont%26gt%3B%26lt%3B%2Fdiv%26gt%3B%22%20style%3D%22text%3Bhtml%3D1%3Balign%3Dcenter%3BverticalAlign%3Dmiddle%3BwhiteSpace%3Dwrap%3Brounded%3D0%3B%22%20vertex%3D%221%22%20parent%3D%221%22%3E%3CmxGeometry%20x%3D%22130%22%20y%3D%222065%22%20width%3D%22130%22%20height%3D%2230%22%20as%3D%22geometry%22%2F%3E%3C%2FmxCell%3E%3C%2Froot%3E%3C%2FmxGraphModel%3E&lt;/span&gt;" style="text;html=1;align=center;verticalAlign=middle;whiteSpace=wrap;rounded=0;" vertex="1" parent="1">
          <mxGeometry x="240" y="2065" width="130" height="30" as="geometry" />
        </mxCell>
        <mxCell id="Pok2jLCqyrNNW6y7tCXJ-157" value="&lt;font face=&quot;Comic Sans MS&quot;&gt;&lt;span style=&quot;font-size: 14px;&quot;&gt;CN fetch data of&lt;/span&gt;&lt;/font&gt;&lt;div&gt;&lt;font face=&quot;Comic Sans MS&quot;&gt;&lt;span style=&quot;font-size: 14px;&quot;&gt;col1(queryCid:1)&lt;/span&gt;&lt;/font&gt;&lt;/div&gt;" style="text;html=1;align=center;verticalAlign=middle;whiteSpace=wrap;rounded=0;" vertex="1" parent="1">
          <mxGeometry x="300" y="2065" width="130" height="30" as="geometry" />
        </mxCell>
        <mxCell id="Pok2jLCqyrNNW6y7tCXJ-159" value="" style="ellipse;shape=doubleEllipse;whiteSpace=wrap;html=1;aspect=fixed;" vertex="1" parent="1">
          <mxGeometry x="362" y="2105" width="10" height="10" as="geometry" />
        </mxCell>
        <mxCell id="Pok2jLCqyrNNW6y7tCXJ-160" value="" style="rounded=1;whiteSpace=wrap;html=1;" vertex="1" parent="1">
          <mxGeometry x="310" y="2130" width="100" height="130" as="geometry" />
        </mxCell>
        <mxCell id="Pok2jLCqyrNNW6y7tCXJ-161" value="&lt;font style=&quot;font-size: 14px;&quot; face=&quot;Comic Sans MS&quot;&gt;col0&lt;/font&gt;" style="text;html=1;align=center;verticalAlign=middle;whiteSpace=wrap;rounded=0;" vertex="1" parent="1">
          <mxGeometry x="300" y="2130" width="80" height="30" as="geometry" />
        </mxCell>
        <mxCell id="Pok2jLCqyrNNW6y7tCXJ-162" value="&lt;font style=&quot;font-size: 14px;&quot; face=&quot;Comic Sans MS&quot;&gt;col1&lt;/font&gt;" style="text;html=1;align=center;verticalAlign=middle;whiteSpace=wrap;rounded=0;" vertex="1" parent="1">
          <mxGeometry x="340" y="2130" width="80" height="30" as="geometry" />
        </mxCell>
        <mxCell id="Pok2jLCqyrNNW6y7tCXJ-163" value="" style="shape=table;startSize=0;container=1;collapsible=0;childLayout=tableLayout;fontSize=16;fillColor=#dae8fc;strokeColor=#6c8ebf;" vertex="1" parent="1">
          <mxGeometry x="365" y="2160" width="30" height="80" as="geometry" />
        </mxCell>
        <mxCell id="Pok2jLCqyrNNW6y7tCXJ-164" value="" style="shape=tableRow;horizontal=0;startSize=0;swimlaneHead=0;swimlaneBody=0;strokeColor=inherit;top=0;left=0;bottom=0;right=0;collapsible=0;dropTarget=0;fillColor=none;points=[[0,0.5],[1,0.5]];portConstraint=eastwest;fontSize=16;" vertex="1" parent="Pok2jLCqyrNNW6y7tCXJ-163">
          <mxGeometry width="30" height="26" as="geometry" />
        </mxCell>
        <mxCell id="Pok2jLCqyrNNW6y7tCXJ-165" value="a" style="shape=partialRectangle;html=1;whiteSpace=wrap;connectable=0;strokeColor=inherit;overflow=hidden;fillColor=none;top=0;left=0;bottom=0;right=0;pointerEvents=1;fontSize=16;" vertex="1" parent="Pok2jLCqyrNNW6y7tCXJ-164">
          <mxGeometry width="30" height="26" as="geometry">
            <mxRectangle width="30" height="26" as="alternateBounds" />
          </mxGeometry>
        </mxCell>
        <mxCell id="Pok2jLCqyrNNW6y7tCXJ-166" value="" style="shape=tableRow;horizontal=0;startSize=0;swimlaneHead=0;swimlaneBody=0;strokeColor=inherit;top=0;left=0;bottom=0;right=0;collapsible=0;dropTarget=0;fillColor=none;points=[[0,0.5],[1,0.5]];portConstraint=eastwest;fontSize=16;" vertex="1" parent="Pok2jLCqyrNNW6y7tCXJ-163">
          <mxGeometry y="26" width="30" height="28" as="geometry" />
        </mxCell>
        <mxCell id="Pok2jLCqyrNNW6y7tCXJ-167" value="b" style="shape=partialRectangle;html=1;whiteSpace=wrap;connectable=0;strokeColor=inherit;overflow=hidden;fillColor=none;top=0;left=0;bottom=0;right=0;pointerEvents=1;fontSize=16;" vertex="1" parent="Pok2jLCqyrNNW6y7tCXJ-166">
          <mxGeometry width="30" height="28" as="geometry">
            <mxRectangle width="30" height="28" as="alternateBounds" />
          </mxGeometry>
        </mxCell>
        <mxCell id="Pok2jLCqyrNNW6y7tCXJ-168" value="" style="shape=tableRow;horizontal=0;startSize=0;swimlaneHead=0;swimlaneBody=0;strokeColor=inherit;top=0;left=0;bottom=0;right=0;collapsible=0;dropTarget=0;fillColor=none;points=[[0,0.5],[1,0.5]];portConstraint=eastwest;fontSize=16;" vertex="1" parent="Pok2jLCqyrNNW6y7tCXJ-163">
          <mxGeometry y="54" width="30" height="26" as="geometry" />
        </mxCell>
        <mxCell id="Pok2jLCqyrNNW6y7tCXJ-169" value="c" style="shape=partialRectangle;html=1;whiteSpace=wrap;connectable=0;strokeColor=inherit;overflow=hidden;fillColor=none;top=0;left=0;bottom=0;right=0;pointerEvents=1;fontSize=16;" vertex="1" parent="Pok2jLCqyrNNW6y7tCXJ-168">
          <mxGeometry width="30" height="26" as="geometry">
            <mxRectangle width="30" height="26" as="alternateBounds" />
          </mxGeometry>
        </mxCell>
        <mxCell id="Pok2jLCqyrNNW6y7tCXJ-170" value="" style="shape=table;startSize=0;container=1;collapsible=0;childLayout=tableLayout;fontSize=16;" vertex="1" parent="1">
          <mxGeometry x="325" y="2160" width="30" height="80" as="geometry" />
        </mxCell>
        <mxCell id="Pok2jLCqyrNNW6y7tCXJ-171" value="" style="shape=tableRow;horizontal=0;startSize=0;swimlaneHead=0;swimlaneBody=0;strokeColor=inherit;top=0;left=0;bottom=0;right=0;collapsible=0;dropTarget=0;fillColor=none;points=[[0,0.5],[1,0.5]];portConstraint=eastwest;fontSize=16;" vertex="1" parent="Pok2jLCqyrNNW6y7tCXJ-170">
          <mxGeometry width="30" height="26" as="geometry" />
        </mxCell>
        <mxCell id="Pok2jLCqyrNNW6y7tCXJ-172" value="1" style="shape=partialRectangle;html=1;whiteSpace=wrap;connectable=0;strokeColor=inherit;overflow=hidden;fillColor=none;top=0;left=0;bottom=0;right=0;pointerEvents=1;fontSize=16;" vertex="1" parent="Pok2jLCqyrNNW6y7tCXJ-171">
          <mxGeometry width="30" height="26" as="geometry">
            <mxRectangle width="30" height="26" as="alternateBounds" />
          </mxGeometry>
        </mxCell>
        <mxCell id="Pok2jLCqyrNNW6y7tCXJ-173" value="" style="shape=tableRow;horizontal=0;startSize=0;swimlaneHead=0;swimlaneBody=0;strokeColor=inherit;top=0;left=0;bottom=0;right=0;collapsible=0;dropTarget=0;fillColor=none;points=[[0,0.5],[1,0.5]];portConstraint=eastwest;fontSize=16;" vertex="1" parent="Pok2jLCqyrNNW6y7tCXJ-170">
          <mxGeometry y="26" width="30" height="28" as="geometry" />
        </mxCell>
        <mxCell id="Pok2jLCqyrNNW6y7tCXJ-174" value="2" style="shape=partialRectangle;html=1;whiteSpace=wrap;connectable=0;strokeColor=inherit;overflow=hidden;fillColor=none;top=0;left=0;bottom=0;right=0;pointerEvents=1;fontSize=16;" vertex="1" parent="Pok2jLCqyrNNW6y7tCXJ-173">
          <mxGeometry width="30" height="28" as="geometry">
            <mxRectangle width="30" height="28" as="alternateBounds" />
          </mxGeometry>
        </mxCell>
        <mxCell id="Pok2jLCqyrNNW6y7tCXJ-175" value="" style="shape=tableRow;horizontal=0;startSize=0;swimlaneHead=0;swimlaneBody=0;strokeColor=inherit;top=0;left=0;bottom=0;right=0;collapsible=0;dropTarget=0;fillColor=none;points=[[0,0.5],[1,0.5]];portConstraint=eastwest;fontSize=16;" vertex="1" parent="Pok2jLCqyrNNW6y7tCXJ-170">
          <mxGeometry y="54" width="30" height="26" as="geometry" />
        </mxCell>
        <mxCell id="Pok2jLCqyrNNW6y7tCXJ-176" value="3" style="shape=partialRectangle;html=1;whiteSpace=wrap;connectable=0;strokeColor=inherit;overflow=hidden;fillColor=none;top=0;left=0;bottom=0;right=0;pointerEvents=1;fontSize=16;" vertex="1" parent="Pok2jLCqyrNNW6y7tCXJ-175">
          <mxGeometry width="30" height="26" as="geometry">
            <mxRectangle width="30" height="26" as="alternateBounds" />
          </mxGeometry>
        </mxCell>
        <mxCell id="Pok2jLCqyrNNW6y7tCXJ-177" value="" style="shape=curlyBracket;whiteSpace=wrap;html=1;rounded=1;flipH=1;labelPosition=right;verticalLabelPosition=middle;align=left;verticalAlign=middle;rotation=90;size=0.22413793103448276;" vertex="1" parent="1">
          <mxGeometry x="183.75" y="2116.25" width="72.5" height="330" as="geometry" />
        </mxCell>
        <mxCell id="Pok2jLCqyrNNW6y7tCXJ-178" value="" style="rounded=1;whiteSpace=wrap;html=1;" vertex="1" parent="1">
          <mxGeometry x="145" y="2320" width="150" height="130" as="geometry" />
        </mxCell>
        <mxCell id="Pok2jLCqyrNNW6y7tCXJ-179" value="&lt;font style=&quot;font-size: 14px;&quot; face=&quot;Comic Sans MS&quot;&gt;col0&lt;/font&gt;" style="text;html=1;align=center;verticalAlign=middle;whiteSpace=wrap;rounded=0;" vertex="1" parent="1">
          <mxGeometry x="139" y="2321" width="80" height="30" as="geometry" />
        </mxCell>
        <mxCell id="Pok2jLCqyrNNW6y7tCXJ-180" value="&lt;font style=&quot;font-size: 14px;&quot; face=&quot;Comic Sans MS&quot;&gt;col1&lt;/font&gt;" style="text;html=1;align=center;verticalAlign=middle;whiteSpace=wrap;rounded=0;" vertex="1" parent="1">
          <mxGeometry x="221" y="2321" width="80" height="30" as="geometry" />
        </mxCell>
        <mxCell id="Pok2jLCqyrNNW6y7tCXJ-181" value="" style="shape=table;startSize=0;container=1;collapsible=0;childLayout=tableLayout;fontSize=16;fillColor=#dae8fc;strokeColor=#6c8ebf;" vertex="1" parent="1">
          <mxGeometry x="246" y="2351" width="30" height="80" as="geometry" />
        </mxCell>
        <mxCell id="Pok2jLCqyrNNW6y7tCXJ-182" value="" style="shape=tableRow;horizontal=0;startSize=0;swimlaneHead=0;swimlaneBody=0;strokeColor=inherit;top=0;left=0;bottom=0;right=0;collapsible=0;dropTarget=0;fillColor=none;points=[[0,0.5],[1,0.5]];portConstraint=eastwest;fontSize=16;" vertex="1" parent="Pok2jLCqyrNNW6y7tCXJ-181">
          <mxGeometry width="30" height="26" as="geometry" />
        </mxCell>
        <mxCell id="Pok2jLCqyrNNW6y7tCXJ-183" value="a" style="shape=partialRectangle;html=1;whiteSpace=wrap;connectable=0;strokeColor=inherit;overflow=hidden;fillColor=none;top=0;left=0;bottom=0;right=0;pointerEvents=1;fontSize=16;" vertex="1" parent="Pok2jLCqyrNNW6y7tCXJ-182">
          <mxGeometry width="30" height="26" as="geometry">
            <mxRectangle width="30" height="26" as="alternateBounds" />
          </mxGeometry>
        </mxCell>
        <mxCell id="Pok2jLCqyrNNW6y7tCXJ-184" value="" style="shape=tableRow;horizontal=0;startSize=0;swimlaneHead=0;swimlaneBody=0;strokeColor=inherit;top=0;left=0;bottom=0;right=0;collapsible=0;dropTarget=0;fillColor=none;points=[[0,0.5],[1,0.5]];portConstraint=eastwest;fontSize=16;" vertex="1" parent="Pok2jLCqyrNNW6y7tCXJ-181">
          <mxGeometry y="26" width="30" height="28" as="geometry" />
        </mxCell>
        <mxCell id="Pok2jLCqyrNNW6y7tCXJ-185" value="b" style="shape=partialRectangle;html=1;whiteSpace=wrap;connectable=0;strokeColor=inherit;overflow=hidden;fillColor=none;top=0;left=0;bottom=0;right=0;pointerEvents=1;fontSize=16;" vertex="1" parent="Pok2jLCqyrNNW6y7tCXJ-184">
          <mxGeometry width="30" height="28" as="geometry">
            <mxRectangle width="30" height="28" as="alternateBounds" />
          </mxGeometry>
        </mxCell>
        <mxCell id="Pok2jLCqyrNNW6y7tCXJ-186" value="" style="shape=tableRow;horizontal=0;startSize=0;swimlaneHead=0;swimlaneBody=0;strokeColor=inherit;top=0;left=0;bottom=0;right=0;collapsible=0;dropTarget=0;fillColor=none;points=[[0,0.5],[1,0.5]];portConstraint=eastwest;fontSize=16;" vertex="1" parent="Pok2jLCqyrNNW6y7tCXJ-181">
          <mxGeometry y="54" width="30" height="26" as="geometry" />
        </mxCell>
        <mxCell id="Pok2jLCqyrNNW6y7tCXJ-187" value="c" style="shape=partialRectangle;html=1;whiteSpace=wrap;connectable=0;strokeColor=inherit;overflow=hidden;fillColor=none;top=0;left=0;bottom=0;right=0;pointerEvents=1;fontSize=16;" vertex="1" parent="Pok2jLCqyrNNW6y7tCXJ-186">
          <mxGeometry width="30" height="26" as="geometry">
            <mxRectangle width="30" height="26" as="alternateBounds" />
          </mxGeometry>
        </mxCell>
        <mxCell id="Pok2jLCqyrNNW6y7tCXJ-195" value="" style="shape=table;startSize=0;container=1;collapsible=0;childLayout=tableLayout;fontSize=16;fillColor=#d5e8d4;strokeColor=#82b366;" vertex="1" parent="1">
          <mxGeometry x="164" y="2351" width="30" height="80" as="geometry" />
        </mxCell>
        <mxCell id="Pok2jLCqyrNNW6y7tCXJ-196" value="" style="shape=tableRow;horizontal=0;startSize=0;swimlaneHead=0;swimlaneBody=0;strokeColor=inherit;top=0;left=0;bottom=0;right=0;collapsible=0;dropTarget=0;fillColor=none;points=[[0,0.5],[1,0.5]];portConstraint=eastwest;fontSize=16;" vertex="1" parent="Pok2jLCqyrNNW6y7tCXJ-195">
          <mxGeometry width="30" height="26" as="geometry" />
        </mxCell>
        <mxCell id="Pok2jLCqyrNNW6y7tCXJ-197" value="1" style="shape=partialRectangle;html=1;whiteSpace=wrap;connectable=0;strokeColor=inherit;overflow=hidden;fillColor=none;top=0;left=0;bottom=0;right=0;pointerEvents=1;fontSize=16;" vertex="1" parent="Pok2jLCqyrNNW6y7tCXJ-196">
          <mxGeometry width="30" height="26" as="geometry">
            <mxRectangle width="30" height="26" as="alternateBounds" />
          </mxGeometry>
        </mxCell>
        <mxCell id="Pok2jLCqyrNNW6y7tCXJ-198" value="" style="shape=tableRow;horizontal=0;startSize=0;swimlaneHead=0;swimlaneBody=0;strokeColor=inherit;top=0;left=0;bottom=0;right=0;collapsible=0;dropTarget=0;fillColor=none;points=[[0,0.5],[1,0.5]];portConstraint=eastwest;fontSize=16;" vertex="1" parent="Pok2jLCqyrNNW6y7tCXJ-195">
          <mxGeometry y="26" width="30" height="28" as="geometry" />
        </mxCell>
        <mxCell id="Pok2jLCqyrNNW6y7tCXJ-199" value="3" style="shape=partialRectangle;html=1;whiteSpace=wrap;connectable=0;strokeColor=inherit;overflow=hidden;fillColor=none;top=0;left=0;bottom=0;right=0;pointerEvents=1;fontSize=16;" vertex="1" parent="Pok2jLCqyrNNW6y7tCXJ-198">
          <mxGeometry width="30" height="28" as="geometry">
            <mxRectangle width="30" height="28" as="alternateBounds" />
          </mxGeometry>
        </mxCell>
        <mxCell id="Pok2jLCqyrNNW6y7tCXJ-200" value="" style="shape=tableRow;horizontal=0;startSize=0;swimlaneHead=0;swimlaneBody=0;strokeColor=inherit;top=0;left=0;bottom=0;right=0;collapsible=0;dropTarget=0;fillColor=none;points=[[0,0.5],[1,0.5]];portConstraint=eastwest;fontSize=16;" vertex="1" parent="Pok2jLCqyrNNW6y7tCXJ-195">
          <mxGeometry y="54" width="30" height="26" as="geometry" />
        </mxCell>
        <mxCell id="Pok2jLCqyrNNW6y7tCXJ-201" value="2" style="shape=partialRectangle;html=1;whiteSpace=wrap;connectable=0;strokeColor=inherit;overflow=hidden;fillColor=none;top=0;left=0;bottom=0;right=0;pointerEvents=1;fontSize=16;" vertex="1" parent="Pok2jLCqyrNNW6y7tCXJ-200">
          <mxGeometry width="30" height="26" as="geometry">
            <mxRectangle width="30" height="26" as="alternateBounds" />
          </mxGeometry>
        </mxCell>
        <mxCell id="Pok2jLCqyrNNW6y7tCXJ-202" value="" style="rounded=1;whiteSpace=wrap;html=1;" vertex="1" parent="1">
          <mxGeometry x="170" y="2130" width="100" height="130" as="geometry" />
        </mxCell>
        <mxCell id="Pok2jLCqyrNNW6y7tCXJ-203" value="&lt;font style=&quot;font-size: 14px;&quot; face=&quot;Comic Sans MS&quot;&gt;col0&lt;/font&gt;" style="text;html=1;align=center;verticalAlign=middle;whiteSpace=wrap;rounded=0;" vertex="1" parent="1">
          <mxGeometry x="160" y="2130" width="80" height="30" as="geometry" />
        </mxCell>
        <mxCell id="Pok2jLCqyrNNW6y7tCXJ-204" value="&lt;font style=&quot;font-size: 14px;&quot; face=&quot;Comic Sans MS&quot;&gt;col1&lt;/font&gt;" style="text;html=1;align=center;verticalAlign=middle;whiteSpace=wrap;rounded=0;" vertex="1" parent="1">
          <mxGeometry x="200" y="2130" width="80" height="30" as="geometry" />
        </mxCell>
        <mxCell id="Pok2jLCqyrNNW6y7tCXJ-234" value="&lt;font style=&quot;font-size: 30px;&quot; face=&quot;Comic Sans MS&quot;&gt;❌&lt;/font&gt;" style="text;html=1;align=center;verticalAlign=middle;whiteSpace=wrap;rounded=0;" vertex="1" parent="1">
          <mxGeometry x="155" y="2370" width="130" height="30" as="geometry" />
        </mxCell>
        <mxCell id="Pok2jLCqyrNNW6y7tCXJ-219" value="" style="shape=table;startSize=0;container=1;collapsible=0;childLayout=tableLayout;fontSize=16;" vertex="1" parent="1">
          <mxGeometry x="185" y="2165" width="30" height="80" as="geometry" />
        </mxCell>
        <mxCell id="Pok2jLCqyrNNW6y7tCXJ-220" value="" style="shape=tableRow;horizontal=0;startSize=0;swimlaneHead=0;swimlaneBody=0;strokeColor=inherit;top=0;left=0;bottom=0;right=0;collapsible=0;dropTarget=0;fillColor=none;points=[[0,0.5],[1,0.5]];portConstraint=eastwest;fontSize=16;" vertex="1" parent="Pok2jLCqyrNNW6y7tCXJ-219">
          <mxGeometry width="30" height="26" as="geometry" />
        </mxCell>
        <mxCell id="Pok2jLCqyrNNW6y7tCXJ-221" value="1" style="shape=partialRectangle;html=1;whiteSpace=wrap;connectable=0;strokeColor=inherit;overflow=hidden;fillColor=none;top=0;left=0;bottom=0;right=0;pointerEvents=1;fontSize=16;" vertex="1" parent="Pok2jLCqyrNNW6y7tCXJ-220">
          <mxGeometry width="30" height="26" as="geometry">
            <mxRectangle width="30" height="26" as="alternateBounds" />
          </mxGeometry>
        </mxCell>
        <mxCell id="Pok2jLCqyrNNW6y7tCXJ-222" value="" style="shape=tableRow;horizontal=0;startSize=0;swimlaneHead=0;swimlaneBody=0;strokeColor=inherit;top=0;left=0;bottom=0;right=0;collapsible=0;dropTarget=0;fillColor=none;points=[[0,0.5],[1,0.5]];portConstraint=eastwest;fontSize=16;" vertex="1" parent="Pok2jLCqyrNNW6y7tCXJ-219">
          <mxGeometry y="26" width="30" height="28" as="geometry" />
        </mxCell>
        <mxCell id="Pok2jLCqyrNNW6y7tCXJ-223" value="2" style="shape=partialRectangle;html=1;whiteSpace=wrap;connectable=0;strokeColor=inherit;overflow=hidden;fillColor=none;top=0;left=0;bottom=0;right=0;pointerEvents=1;fontSize=16;" vertex="1" parent="Pok2jLCqyrNNW6y7tCXJ-222">
          <mxGeometry width="30" height="28" as="geometry">
            <mxRectangle width="30" height="28" as="alternateBounds" />
          </mxGeometry>
        </mxCell>
        <mxCell id="Pok2jLCqyrNNW6y7tCXJ-224" value="" style="shape=tableRow;horizontal=0;startSize=0;swimlaneHead=0;swimlaneBody=0;strokeColor=inherit;top=0;left=0;bottom=0;right=0;collapsible=0;dropTarget=0;fillColor=none;points=[[0,0.5],[1,0.5]];portConstraint=eastwest;fontSize=16;" vertex="1" parent="Pok2jLCqyrNNW6y7tCXJ-219">
          <mxGeometry y="54" width="30" height="26" as="geometry" />
        </mxCell>
        <mxCell id="Pok2jLCqyrNNW6y7tCXJ-225" value="3" style="shape=partialRectangle;html=1;whiteSpace=wrap;connectable=0;strokeColor=inherit;overflow=hidden;fillColor=none;top=0;left=0;bottom=0;right=0;pointerEvents=1;fontSize=16;" vertex="1" parent="Pok2jLCqyrNNW6y7tCXJ-224">
          <mxGeometry width="30" height="26" as="geometry">
            <mxRectangle width="30" height="26" as="alternateBounds" />
          </mxGeometry>
        </mxCell>
        <mxCell id="Pok2jLCqyrNNW6y7tCXJ-226" value="" style="shape=table;startSize=0;container=1;collapsible=0;childLayout=tableLayout;fontSize=16;" vertex="1" parent="1">
          <mxGeometry x="225" y="2165" width="30" height="80" as="geometry" />
        </mxCell>
        <mxCell id="Pok2jLCqyrNNW6y7tCXJ-227" value="" style="shape=tableRow;horizontal=0;startSize=0;swimlaneHead=0;swimlaneBody=0;strokeColor=inherit;top=0;left=0;bottom=0;right=0;collapsible=0;dropTarget=0;fillColor=none;points=[[0,0.5],[1,0.5]];portConstraint=eastwest;fontSize=16;" vertex="1" parent="Pok2jLCqyrNNW6y7tCXJ-226">
          <mxGeometry width="30" height="26" as="geometry" />
        </mxCell>
        <mxCell id="Pok2jLCqyrNNW6y7tCXJ-228" value="a" style="shape=partialRectangle;html=1;whiteSpace=wrap;connectable=0;strokeColor=inherit;overflow=hidden;fillColor=none;top=0;left=0;bottom=0;right=0;pointerEvents=1;fontSize=16;" vertex="1" parent="Pok2jLCqyrNNW6y7tCXJ-227">
          <mxGeometry width="30" height="26" as="geometry">
            <mxRectangle width="30" height="26" as="alternateBounds" />
          </mxGeometry>
        </mxCell>
        <mxCell id="Pok2jLCqyrNNW6y7tCXJ-229" value="" style="shape=tableRow;horizontal=0;startSize=0;swimlaneHead=0;swimlaneBody=0;strokeColor=inherit;top=0;left=0;bottom=0;right=0;collapsible=0;dropTarget=0;fillColor=none;points=[[0,0.5],[1,0.5]];portConstraint=eastwest;fontSize=16;" vertex="1" parent="Pok2jLCqyrNNW6y7tCXJ-226">
          <mxGeometry y="26" width="30" height="28" as="geometry" />
        </mxCell>
        <mxCell id="Pok2jLCqyrNNW6y7tCXJ-230" value="b" style="shape=partialRectangle;html=1;whiteSpace=wrap;connectable=0;strokeColor=inherit;overflow=hidden;fillColor=none;top=0;left=0;bottom=0;right=0;pointerEvents=1;fontSize=16;" vertex="1" parent="Pok2jLCqyrNNW6y7tCXJ-229">
          <mxGeometry width="30" height="28" as="geometry">
            <mxRectangle width="30" height="28" as="alternateBounds" />
          </mxGeometry>
        </mxCell>
        <mxCell id="Pok2jLCqyrNNW6y7tCXJ-231" value="" style="shape=tableRow;horizontal=0;startSize=0;swimlaneHead=0;swimlaneBody=0;strokeColor=inherit;top=0;left=0;bottom=0;right=0;collapsible=0;dropTarget=0;fillColor=none;points=[[0,0.5],[1,0.5]];portConstraint=eastwest;fontSize=16;" vertex="1" parent="Pok2jLCqyrNNW6y7tCXJ-226">
          <mxGeometry y="54" width="30" height="26" as="geometry" />
        </mxCell>
        <mxCell id="Pok2jLCqyrNNW6y7tCXJ-232" value="c" style="shape=partialRectangle;html=1;whiteSpace=wrap;connectable=0;strokeColor=inherit;overflow=hidden;fillColor=none;top=0;left=0;bottom=0;right=0;pointerEvents=1;fontSize=16;" vertex="1" parent="Pok2jLCqyrNNW6y7tCXJ-231">
          <mxGeometry width="30" height="26" as="geometry">
            <mxRectangle width="30" height="26" as="alternateBounds" />
          </mxGeometry>
        </mxCell>
      </root>
    </mxGraphModel>
  </diagram>
</mxfile>
